<?xml version="1.0" encoding="utf-8"?>
<!-- Generator: Adobe Illustrator 26.0.3, SVG Export Plug-In . SVG Version: 6.00 Build 0)  -->
<svg version="1.1" id="Слой_1" xmlns="http://www.w3.org/2000/svg" xmlns:xlink="http://www.w3.org/1999/xlink" x="0px" y="0px"
	 viewBox="0 0 2000 2000" style="enable-background:new 0 0 2000 2000;" xml:space="preserve">
<style type="text/css">
	.st0{fill:#0074FF;}
	.st1{fill:#0074FF;stroke:#0074FF;stroke-width:50;stroke-miterlimit:10;}
</style>
<path class="st0" d="M1279.4,1256.3c-49.3,0-93.5-8.4-132.9-25.3c-39.2-16.9-72.6-39.8-100-68.8c-27.4-28.8-48.5-62.2-63-100
	c-14.7-37.8-21.9-77.4-21.9-118.9c0-42.4,7.4-82.5,21.9-120.1c14.5-37.8,35.8-71,63-100c27.4-28.8,60.5-51.9,100-68.8
	c39.2-16.9,83.7-25.3,132.9-25.3s93.3,8.4,132.3,25.3c39,17.1,72,39.8,99.4,68.8c27.4,28.8,48.5,62.2,63,100s21.9,77.8,21.9,120.1
	c0,41.4-7.4,81.5-21.9,118.9c-14.7,37.8-35.6,71-62.6,100c-27,28.8-60.1,51.9-99.4,68.8C1373.2,1247.8,1328.9,1256.3,1279.4,1256.3z
	"/>
<path class="st1" d="M403.7,216.6h284.2v1192.2c0,41,9.6,72.7,29.5,95.6s48.4,34,84.9,34c17,0,35.4-3,56.1-8.5
	c20.3-5.5,39.9-12.5,58.3-21l38,216.3c-38,18.1-83,32.5-133.6,42.4c-50.9,9.6-96.7,14.8-138,14.8c-89.3,0-158.3-23.6-207.1-71.2
	c-48.7-47.2-73.1-115.2-73.1-202.6V216.6L403.7,216.6L403.7,216.6z"/>
</svg>
