<?xml version="1.0" encoding="utf-8"?>
<!-- Generator: Adobe Illustrator 26.0.3, SVG Export Plug-In . SVG Version: 6.00 Build 0)  -->
<svg version="1.1" id="Слой_1" xmlns="http://www.w3.org/2000/svg" xmlns:xlink="http://www.w3.org/1999/xlink" x="0px" y="0px"
	 viewBox="0 0 2000 2000" style="enable-background:new 0 0 2000 2000;" xml:space="preserve">
<style type="text/css">
	.st0{fill:#0074FF;}
</style>
<g>
	<g>
		<path class="st0" d="M997.6,1972.6H684.3v-447.2c-36.7,12.8-74.5,22.5-113.7,28.7c-38.9,6.3-88.1,9.7-147,9.7
			c-71.6,0-133.9-11.7-186.5-34.7c-52.6-23-96.4-54.3-131.6-93.2c-35-38.9-61.4-85-79-137.6S0,1189.1,0,1128.5V719.4h308.5v361.1
			c0,83,16.8,141.9,50.3,177.1c33.5,35,80.5,52.6,141,52.6c44.6,0,81.6-4.3,111.2-13.1c29.6-8.8,53.7-20.5,73.1-34.7v-543h313.3
			v1253.2H997.6z"/>
	</g>
</g>
<g>
	<g>
		<path class="st0" d="M1955.4,259.7c-29.6-54-67.9-98.4-115.1-132.8c-47.2-34.7-100.4-59.7-159.5-75.6
			c-59.1-15.9-119.1-23.9-180-23.9c-54.3,0-107.2,6.3-158.4,18.5c-51.2,12.2-98.6,30.1-142.7,54c-44.1,23.9-83.3,52.9-117.7,87.6
			c-34.4,34.7-62,74.2-82.7,118.8L1208,436c12.8-18.8,28.4-38.7,46.9-59.4c18.5-20.8,39.2-39.5,62.3-56.3
			c23-16.5,49.2-30.1,77.9-40.9c28.7-10.8,60.8-16.2,96.1-16.2c28.7,0,57.1,4,85.3,11.9c27.9,8,52.3,19.9,73.1,35.5
			c20.8,15.9,37.5,35.3,50.3,58.3c12.8,23,19.3,49.8,19.3,79.9c0,40.4-11.7,75.9-34.7,106.9c-23.3,31-51.5,58-85.3,81
			c-33.5,23-67.9,42.9-103.2,59.4c-35.3,16.5-64.8,31.3-88.7,44.3c-79.9,41.8-132.8,90.7-158.4,147s-38.4,119.7-38.4,190.2h0.6
			v237.7h652.7v-241.9h-389.2c0.6-34.1,8.8-63.4,25-87.6c16.8-25.3,38.4-47.5,64.8-67.1c26.4-19.3,55.4-37,87.6-52.9
			c31.8-15.9,64-32.4,96.1-49.8c38.4-21.6,72.8-44.1,103.2-67.1c30.4-23,56.9-48.9,79.3-77.9c22.5-28.7,39.5-60.8,51.5-96.1
			c11.9-35.3,17.9-75.9,17.9-122C1999.7,378.3,1984.9,313.7,1955.4,259.7z"/>
		<circle class="st0" cx="1537.5" cy="1702.2" r="196.7"/>
	</g>
</g>
</svg>
