<?xml version="1.0" encoding="utf-8"?>
<!-- Generator: Adobe Illustrator 26.0.3, SVG Export Plug-In . SVG Version: 6.00 Build 0)  -->
<svg version="1.1" id="Слой_1" xmlns="http://www.w3.org/2000/svg" xmlns:xlink="http://www.w3.org/1999/xlink" x="0px" y="0px"
	 viewBox="0 0 2000 2000" style="enable-background:new 0 0 2000 2000;" xml:space="preserve">
<style type="text/css">
	.st0{fill:#F90808;}
</style>
<path class="st0" d="M1436.6,439.9L1436.6,439.9c-241.1-241.1-632.1-241.1-873.2,0l0,0c-241.1,241.1-241.1,632.1,0,873.2
	l436.6,436.6l436.6-436.6C1677.8,1072,1677.8,681,1436.6,439.9z M1284.9,874.8c0,157.3-127.5,284.8-284.8,284.8l0,0
	c-157.3,0-284.8-127.5-284.8-284.8l0,0c0-157.3,127.5-284.8,284.8-284.8l0,0C1157.4,590,1284.9,717.5,1284.9,874.8L1284.9,874.8z"/>
</svg>
