<?xml version="1.0" encoding="utf-8"?>
<!-- Generator: Adobe Illustrator 26.0.3, SVG Export Plug-In . SVG Version: 6.00 Build 0)  -->
<svg version="1.1" id="Слой_1" xmlns="http://www.w3.org/2000/svg" xmlns:xlink="http://www.w3.org/1999/xlink" x="0px" y="0px"
	 viewBox="0 0 2000 524.6" style="enable-background:new 0 0 2000 524.6;" xml:space="preserve">
<style type="text/css">
	.st0{fill:#FFFFFF;}
</style>
<g>
	<g>
		<path class="st0" d="M241.6,441.2h-75.9V332.9c-8.9,3.1-18.1,5.4-27.5,7c-9.5,1.6-21.3,2.3-35.6,2.3c-17.4,0-32.4-2.8-45.2-8.4
			c-12.7-5.6-23.4-13.2-31.9-22.6c-8.5-9.5-14.9-20.6-19.1-33.4C2.2,265.1,0,251.4,0,236.7v-99.2h74.7v87.6c0,20.1,4,34.4,12.2,42.9
			c8.1,8.5,19.5,12.7,34.2,12.7c10.8,0,19.8-1,26.9-3.2c7.1-2.1,13.1-4.9,17.7-8.4V137.4h75.9L241.6,441.2L241.6,441.2L241.6,441.2z
			"/>
		<path class="st0" d="M454.4,447c-24.3,0-46.4-4.1-66-12.5s-36.6-19.6-50.4-33.9c-13.9-14.3-24.6-30.9-32.2-49.9
			c-7.6-18.9-11.3-38.9-11.3-59.7c0-21.7,3.7-42.1,11-61.2s18-36,31.9-50.4s30.8-26,50.7-34.5c19.9-8.5,42.2-12.7,66.9-12.7
			c24.8,0,46.9,4.2,66.4,12.7c19.5,8.5,36.1,19.9,49.9,34.2c13.8,14.3,24.2,30.9,31.3,49.9c7.1,18.9,10.8,38.6,10.8,59.1
			c0,5-0.1,9.9-0.3,14.4c-0.2,4.6-0.7,8.5-1.5,11.6H376.7c1.1,12,4,22.6,8.7,31.9c4.6,9.3,10.7,17.2,18,23.7s15.7,11.6,24.9,15
			s18.9,5.3,29,5.3c15.5,0,30-3.8,43.8-11.3c13.8-7.6,23-17.4,28.1-29.8l66.7,18.6c-11.2,23.2-29.1,42.2-53.6,57.1
			C517.7,439.6,488.3,447,454.4,447z M365.7,91.1v-69H430v69H365.7z M533.1,263.9c-1.9-22.8-10.3-41-25.2-54.8
			c-14.9-13.8-32.9-20.6-54.2-20.6c-10.4,0-20.2,1.8-29.2,5.5c-9.1,3.7-17.1,8.8-24.1,15.4c-7,6.5-12.6,14.4-17.1,23.7
			s-7.1,19.5-7.8,30.7h157.6V263.9z M477,91.1v-69h64.3v69H477z"/>
	</g>
</g>
<path class="st0" d="M691,524.6V0h66v524.6H691z"/>
<g>
	<g>
		<path class="st0" d="M832.9,22.2h77v323c0,11.1,2.6,19.7,8,25.9s13.1,9.2,23,9.2c4.6,0,9.6-0.8,15.2-2.3
			c5.5-1.5,10.8-3.4,15.8-5.7l10.3,58.6c-10.3,4.9-22.5,8.8-36.2,11.5c-13.8,2.6-26.2,4-37.4,4c-24.2,0-42.9-6.4-56.1-19.3
			c-13.2-12.8-19.8-31.2-19.8-54.9v-350H832.9z"/>
		<path class="st0" d="M1154.6,447.5c-24.5,0-46.5-4.2-66.1-12.6c-19.5-8.4-36.1-19.8-49.7-34.2c-13.6-14.3-24.1-30.9-31.3-49.7
			c-7.3-18.8-10.9-38.5-10.9-59.1c0-21.1,3.7-41,10.9-59.7c7.2-18.8,17.8-35.3,31.3-49.7c13.6-14.3,30.1-25.8,49.7-34.2
			c19.5-8.4,41.6-12.6,66.1-12.6s46.4,4.2,65.8,12.6c19.4,8.5,35.8,19.8,49.4,34.2c13.6,14.3,24.1,30.9,31.3,49.7
			s10.9,38.7,10.9,59.7c0,20.6-3.7,40.5-10.9,59.1c-7.3,18.8-17.7,35.3-31.1,49.7c-13.4,14.3-29.9,25.8-49.4,34.2
			C1201.2,443.3,1179.2,447.5,1154.6,447.5z"/>
		<path class="st0" d="M1502.9,447.5c-24.5,0-46.5-4.2-66.1-12.6c-19.5-8.4-36.1-19.8-49.7-34.2c-13.6-14.3-24.1-30.9-31.3-49.7
			c-7.3-18.8-10.9-38.5-10.9-59.1c0-21.1,3.7-41,10.9-59.7c7.2-18.8,17.8-35.3,31.3-49.7c13.6-14.3,30.1-25.8,49.7-34.2
			c19.5-8.4,41.6-12.6,66.1-12.6s46.4,4.2,65.8,12.6c19.4,8.5,35.8,19.8,49.4,34.2c13.6,14.3,24.1,30.9,31.3,49.7
			c7.2,18.8,10.9,38.7,10.9,59.7c0,20.6-3.7,40.5-10.9,59.1c-7.3,18.8-17.7,35.3-31.1,49.7c-13.4,14.3-29.9,25.8-49.4,34.2
			C1549.4,443.3,1527.4,447.5,1502.9,447.5z"/>
		<path class="st0" d="M1917.8,441.8l-87.3-130.4l-41.4,40.8v89.6h-77V22.2h77v254.6l120.7-135.6h82.2l-112.1,127.6l120.1,173
			L1917.8,441.8L1917.8,441.8z"/>
	</g>
</g>
</svg>
