<?xml version="1.0" encoding="utf-8"?>
<!-- Generator: Adobe Illustrator 26.0.3, SVG Export Plug-In . SVG Version: 6.00 Build 0)  -->
<svg version="1.1" id="Слой_1" xmlns="http://www.w3.org/2000/svg" xmlns:xlink="http://www.w3.org/1999/xlink" x="0px" y="0px"
	 viewBox="0 0 1359 735" style="enable-background:new 0 0 1359 735;" xml:space="preserve">
<style type="text/css">
	.st0{fill:#FFFFFF;}
	.st1{fill:#3C89F7;}
</style>
<g>
	<rect class="st0" width="1359" height="735"/>
</g>
<g>
	<path class="st1" d="M293.7,366.3c-2.1,1.6-4.9,2.9-8.2,3.9c-3.3,1-7.4,1.5-12.4,1.5c-6.8,0-12.1-1.9-15.8-5.9
		c-3.8-3.9-5.6-10.5-5.6-19.8v-40.5h-34.5v45.8c0,6.8,1,13.1,3,19c1.9,5.9,4.9,11,8.8,15.4c3.9,4.3,8.9,7.9,14.7,10.4
		c5.9,2.6,12.8,3.9,20.9,3.9c6.6,0,12.1-0.3,16.4-1.1c4.3-0.7,8.6-1.8,12.7-3.2v50h35.1V305.5h-35.1V366.3z"/>
	<path class="st1" d="M481,324.7c-6.4-6.6-14-11.9-23-15.8c-9-3.9-19.2-5.9-30.7-5.9c-11.4,0-21.7,1.9-30.9,5.9
		c-9.2,3.9-17,9.3-23.4,15.9c-6.4,6.7-11.4,14.5-14.7,23.3c-3.4,8.8-5.1,18.2-5.1,28.3c0,9.6,1.7,18.8,5.2,27.6
		c3.5,8.8,8.5,16.4,14.9,23c6.4,6.6,14.2,11.8,23.3,15.7c9.1,3.9,19.3,5.8,30.5,5.8c15.7,0,29.2-3.4,40.6-10.3
		c11.3-6.9,19.6-15.7,24.8-26.4l-30.8-8.6c-2.4,5.7-6.6,10.3-13,13.8c-6.4,3.5-13.1,5.2-20.2,5.2c-4.7,0-9.1-0.9-13.4-2.4
		c-4.2-1.6-8.1-3.9-11.5-6.9c-3.4-3-6.2-6.7-8.3-10.9c-2.2-4.3-3.5-9.2-4-14.7h108.5c0.4-1.4,0.6-3.2,0.7-5.4
		c0.1-2.1,0.1-4.3,0.1-6.7c0-9.5-1.7-18.6-5-27.3C492.2,339,487.4,331.3,481,324.7z M390.6,363.8c0.3-5.2,1.5-9.9,3.6-14.2
		c2.1-4.3,4.7-7.9,7.9-10.9c3.2-3,6.9-5.4,11.1-7.1c4.2-1.7,8.7-2.5,13.5-2.5c9.8,0,18.2,3.1,25,9.5c6.9,6.4,10.7,14.8,11.6,25.3
		H390.6z"/>
	<rect x="386.1" y="252.2" class="st1" width="29.7" height="31.9"/>
	<rect x="437.5" y="252.2" class="st1" width="29.7" height="31.9"/>
	<rect x="536.3" y="242" class="st1" width="30.5" height="242.3"/>
	<path class="st1" d="M658.8,416.6c-2.6,0.7-4.9,1.1-7,1.1c-4.6,0-8.1-1.4-10.6-4.2c-2.5-2.9-3.7-6.8-3.7-12V252.3h-35.6h-0.1v161.6
		c0,10.9,3,19.4,9.1,25.4c6.1,6,14.7,8.9,25.9,8.9c5.2,0,10.9-0.6,17.3-1.8c6.3-1.2,12-3,16.7-5.3l-4.8-27.1
		C663.8,415,661.3,415.9,658.8,416.6z"/>
	<path class="st1" d="M803.6,326.3c-6.3-6.7-13.9-11.9-22.8-15.8c-9-3.9-19.1-5.8-30.4-5.8c-11.3,0-21.5,1.9-30.5,5.8
		c-9.1,3.9-16.7,9.2-23,15.8c-6.2,6.7-11.1,14.3-14.5,23c-3.3,8.6-5,17.8-5,27.6c0,9.5,1.7,18.6,5,27.3c3.3,8.7,8.2,16.3,14.5,23
		c6.3,6.7,13.9,11.9,23,15.8c9.1,3.9,19.2,5.8,30.5,5.8c11.4,0,21.5-1.9,30.5-5.8c9-3.9,16.6-9.2,22.8-15.8c6.2-6.7,11-14.3,14.4-23
		c3.3-8.6,5-17.8,5-27.3c0-9.7-1.7-18.9-5-27.6C814.8,340.6,809.9,332.9,803.6,326.3z"/>
	<path class="st1" d="M964.5,326.3c-6.3-6.7-13.9-11.9-22.8-15.8c-9-3.9-19.1-5.8-30.4-5.8c-11.3,0-21.5,1.9-30.5,5.8
		c-9.1,3.9-16.7,9.2-23,15.8c-6.2,6.7-11.1,14.3-14.5,23c-3.3,8.6-5,17.8-5,27.6c0,9.5,1.7,18.6,5,27.3c3.3,8.7,8.2,16.3,14.5,23
		c6.3,6.7,13.9,11.9,23,15.8c9.1,3.9,19.2,5.8,30.5,5.8c11.3,0,21.5-1.9,30.5-5.8c9-3.9,16.6-9.2,22.8-15.8c6.2-6.7,11-14.3,14.4-23
		c3.3-8.6,5-17.8,5-27.3c0-9.7-1.7-18.9-5-27.6C975.6,340.6,970.8,332.9,964.5,326.3z"/>
	<polygon class="st1" points="1085.4,366.1 1137.2,307.2 1099.2,307.2 1043.5,369.8 1043.5,252.3 1007.9,252.3 1007.9,446 
		1043.5,446 1043.5,404.7 1062.6,385.8 1102.9,446 1140.9,446 	"/>
</g>
<g>
	<path class="st1" d="M217.2,562.6v-11.3h2.5c1-1.9,1.7-4.1,2.3-6.7s0.8-5.4,0.8-8.5v-6.1h18.5v21.3h4v11.3h-5v-6.9h-18v6.9H217.2z
		 M235.5,551.3v-16.9H228v2.1c0,3-0.2,5.7-0.7,8.3c-0.4,2.6-1.1,4.7-2,6.6H235.5z"/>
	<path class="st1" d="M272.2,555.7h-5.9v-21.3h-8.4v7.1c0,3.6-0.2,6.5-0.6,8.4c-0.4,2-1.1,3.5-2.2,4.5c-0.7,0.7-1.4,1.2-2.3,1.5
		c-0.8,0.3-1.8,0.5-3.1,0.5c-0.5,0-0.9,0-1.3-0.1c-0.4-0.1-0.8-0.1-1.3-0.3l0.8-4.7c0.2,0.1,0.4,0.1,0.6,0.1c0.2,0,0.4,0,0.6,0
		c0.4,0,0.8-0.1,1.1-0.2c0.3-0.1,0.6-0.3,0.9-0.6c0.5-0.5,0.9-1.5,1.1-3c0.2-1.5,0.3-3.7,0.3-6.6v-11.2h19.7V555.7z"/>
	<path class="st1" d="M277.3,555.7l4.1-7.1c0.5-1,1.2-1.8,1.9-2.5c0.7-0.7,1.5-1.1,2.3-1.4c-2.1-0.3-3.7-1.1-4.9-2.3
		c-1.1-1.2-1.7-2.8-1.7-4.7c0-2.5,0.9-4.4,2.6-5.7c1.8-1.3,4.3-2,7.5-2h10.6v25.8h-5.8V546h-2.4c-0.8,0-1.6,0.3-2.4,0.9
		c-0.7,0.6-1.4,1.6-2.1,2.9l-3.1,5.9H277.3z M293.9,534.2h-4.3c-1.5,0-2.7,0.3-3.5,1c-0.8,0.7-1.2,1.6-1.2,2.8c0,1.3,0.4,2.3,1.2,3
		c0.8,0.7,2,1,3.4,1h4.4V534.2z"/>
	<path class="st1" d="M338.5,555.7v-21.3h-11.2v21.3h-5.9v-25.8h23v25.8H338.5z"/>
	<path class="st1" d="M374.3,529.9l-11.9,30.6c-0.9,2.4-2.2,4.2-3.8,5.4c-1.6,1.2-3.5,1.9-5.7,1.9c-0.6,0-1.2,0-1.8-0.1
		c-0.6-0.1-1.1-0.2-1.6-0.3l1-4.6c0.4,0.1,0.7,0.2,1,0.3c0.3,0.1,0.6,0.1,1,0.1c1,0,1.8-0.2,2.4-0.7c0.7-0.5,1.2-1.2,1.6-2.2l2-4.6
		l-10.2-25.7h6.5l6,18c0.1,0.3,0.2,0.7,0.3,1.1c0.1,0.4,0.2,1,0.3,1.5h0.1c0.1-0.3,0.2-0.7,0.3-1.1s0.2-0.9,0.4-1.4l6.2-18H374.3z"
		/>
	<path class="st1" d="M389.4,555.7h-5.9v-21.1H376v-4.7h20.8v4.7h-7.5V555.7z"/>
	<path class="st1" d="M422.3,544.4h-17.6c0.1,2.4,0.8,4.3,2.1,5.6c1.3,1.3,3.1,1.9,5.5,1.9c1,0,2-0.2,3.3-0.6c1.2-0.4,2.4-1,3.6-1.9
		l2.6,3.7c-1.6,1.2-3.2,2-4.9,2.5c-1.6,0.5-3.5,0.8-5.4,0.8c-4,0-7.1-1.2-9.4-3.5c-2.2-2.3-3.4-5.5-3.4-9.7c0-4.1,1.2-7.5,3.5-10
		c2.3-2.6,5.3-3.8,8.9-3.8c3.5,0,6.2,1.1,8.2,3.3c2,2.2,3,5.2,3,9.2V544.4z M416.6,540.3c0-2.2-0.5-3.9-1.4-5
		c-1-1.1-2.3-1.7-4.1-1.7c-1.7,0-3.1,0.6-4.2,1.8c-1.2,1.2-1.9,2.8-2.2,4.9H416.6z"/>
	<path class="st1" d="M427.9,555.7v-25.8h5.9v21.3h8.7v-21.3h5.9v21.3h8.7v-21.3h5.9v25.8H427.9z"/>
	<path class="st1" d="M492.4,544.4h-17.6c0.1,2.4,0.8,4.3,2.1,5.6c1.3,1.3,3.1,1.9,5.5,1.9c1,0,2-0.2,3.3-0.6c1.2-0.4,2.4-1,3.6-1.9
		l2.6,3.7c-1.6,1.2-3.2,2-4.9,2.5c-1.6,0.5-3.5,0.8-5.4,0.8c-4,0-7.1-1.2-9.4-3.5c-2.2-2.3-3.4-5.5-3.4-9.7c0-4.1,1.2-7.5,3.5-10
		c2.3-2.6,5.3-3.8,8.9-3.8c3.5,0,6.2,1.1,8.2,3.3c2,2.2,3,5.2,3,9.2V544.4z M486.7,540.3c0-2.2-0.5-3.9-1.4-5
		c-1-1.1-2.3-1.7-4.1-1.7c-1.7,0-3.1,0.6-4.2,1.8c-1.2,1.2-1.9,2.8-2.2,4.9H486.7z"/>
	<path class="st1" d="M517.2,554.1c-1.3,0.8-2.5,1.3-3.8,1.7s-2.6,0.5-4.1,0.5c-4,0-7.1-1.2-9.5-3.5c-2.4-2.3-3.6-5.5-3.6-9.4
		c0-4.3,1.2-7.7,3.7-10.2c2.5-2.6,5.8-3.8,10-3.8c1.5,0,2.8,0.2,4,0.5c1.2,0.3,2.4,0.8,3.7,1.5l-2.3,4.1c-0.9-0.5-1.7-0.8-2.6-1.1
		c-0.8-0.2-1.8-0.3-2.7-0.3c-2.5,0-4.4,0.8-5.7,2.4c-1.3,1.6-2,3.8-2,6.5c0,2.8,0.7,5,2.2,6.5c1.5,1.5,3.3,2.3,5.5,2.3
		c0.7,0,1.4-0.1,2.3-0.4c0.9-0.2,1.8-0.6,2.6-1.2L517.2,554.1z"/>
	<path class="st1" d="M532.4,555.7h-5.9v-21.1h-7.5v-4.7h20.8v4.7h-7.5V555.7z"/>
	<path class="st1" d="M544.4,555.7v-25.8H557c2.8,0,4.9,0.5,6.4,1.6c1.5,1.1,2.3,2.6,2.3,4.7c0,1.6-0.4,2.9-1.3,3.9
		c-0.9,1-2.1,1.7-3.7,2c1.9,0.3,3.4,0.9,4.5,1.9c1,1,1.5,2.4,1.5,4c0,2.2-0.8,4-2.5,5.4c-1.6,1.4-3.8,2.1-6.4,2.1H544.4z
		 M550.1,534.1v6.4h5.2c1.5,0,2.6-0.3,3.3-0.9c0.7-0.6,1.1-1.4,1.1-2.6c0-1-0.3-1.7-1-2.2c-0.7-0.5-1.7-0.8-3-0.8H550.1z
		 M550.1,544.5v7h6c1.5,0,2.6-0.3,3.3-0.9c0.7-0.6,1.1-1.5,1.1-2.7c0-1.1-0.4-2-1.2-2.6c-0.8-0.6-2-0.8-3.6-0.8H550.1z"/>
	<path class="st1" d="M572.8,555.7v-25.8h5.6v18.4c0.2-0.4,0.5-0.8,0.7-1.3c0.3-0.5,0.5-0.9,0.8-1.2l10.7-15.9h5.6v25.8h-5.6v-18.4
		c-0.2,0.4-0.5,0.8-0.7,1.3c-0.3,0.5-0.5,0.9-0.8,1.2l-10.7,15.9H572.8z"/>
	<path class="st1" d="M603.9,555.7v-25.8h5.6v18.4c0.2-0.4,0.5-0.8,0.7-1.3c0.3-0.5,0.5-0.9,0.8-1.2l10.7-15.9h5.6v25.8h-5.6v-18.4
		c-0.2,0.4-0.5,0.8-0.7,1.3c-0.3,0.5-0.5,0.9-0.8,1.2l-10.7,15.9H603.9z M623.8,518.3c-0.3,2.5-1.1,4.4-2.5,5.7
		c-1.4,1.3-3.3,2-5.8,2c-2.5,0-4.4-0.7-5.8-2c-1.4-1.3-2.2-3.2-2.5-5.7h4.3c0.2,1.6,0.6,2.8,1.3,3.5c0.7,0.7,1.6,1.1,2.8,1.1
		c1.1,0,2.1-0.4,2.8-1.1c0.7-0.7,1.1-1.9,1.3-3.5H623.8z"/>
	<path class="st1" d="M655,567.9h-4.9v-51.6h4.9V567.9z"/>
	<path class="st1" d="M674.3,562.6v-11.3h2.5c1-1.9,1.7-4.1,2.3-6.7c0.5-2.6,0.8-5.4,0.8-8.5v-6.1h18.5v21.3h4v11.3h-5v-6.9h-18v6.9
		H674.3z M692.6,551.3v-16.9h-7.5v2.1c0,3-0.2,5.7-0.7,8.3c-0.4,2.6-1.1,4.7-2,6.6H692.6z"/>
	<path class="st1" d="M729.3,555.7h-5.9v-21.3H715v7.1c0,3.6-0.2,6.5-0.6,8.4c-0.4,2-1.1,3.5-2.2,4.5c-0.7,0.7-1.4,1.2-2.3,1.5
		c-0.8,0.3-1.8,0.5-3.1,0.5c-0.5,0-0.9,0-1.3-0.1c-0.4-0.1-0.8-0.1-1.3-0.3l0.8-4.7c0.2,0.1,0.4,0.1,0.6,0.1c0.2,0,0.4,0,0.6,0
		c0.4,0,0.8-0.1,1.1-0.2c0.3-0.1,0.6-0.3,0.9-0.6c0.5-0.5,0.9-1.5,1.1-3c0.2-1.5,0.3-3.7,0.3-6.6v-11.2h19.7V555.7z"/>
	<path class="st1" d="M734.4,555.7l4.1-7.1c0.5-1,1.2-1.8,1.9-2.5c0.7-0.7,1.5-1.1,2.3-1.4c-2.1-0.3-3.7-1.1-4.9-2.3
		c-1.1-1.2-1.7-2.8-1.7-4.7c0-2.5,0.9-4.4,2.6-5.7c1.8-1.3,4.3-2,7.5-2h10.6v25.8H751V546h-2.4c-0.8,0-1.6,0.3-2.4,0.9
		c-0.7,0.6-1.4,1.6-2.1,2.9l-3.1,5.9H734.4z M751,534.2h-4.3c-1.5,0-2.7,0.3-3.5,1c-0.8,0.7-1.2,1.6-1.2,2.8c0,1.3,0.4,2.3,1.2,3
		c0.8,0.7,2,1,3.4,1h4.4V534.2z"/>
	<path class="st1" d="M784.4,555.7h-5.9v-25.8h5.9v11.9h0.1l9.4-11.9h7.3l-10.8,12.3l11.6,13.5h-7.5l-9.9-12.6h-0.1V555.7z"/>
	<path class="st1" d="M805.6,555.7v-25.8h5.6v18.4c0.2-0.4,0.5-0.8,0.7-1.3c0.3-0.5,0.5-0.9,0.8-1.2l10.7-15.9h5.6v25.8h-5.6v-18.4
		c-0.2,0.4-0.5,0.8-0.7,1.3c-0.3,0.5-0.5,0.9-0.8,1.2l-10.7,15.9H805.6z"/>
	<path class="st1" d="M836.6,555.7v-25.8h5.9v10.4h11.2v-10.4h5.9v25.8h-5.9v-11h-11.2v11H836.6z"/>
	<path class="st1" d="M878.7,556.3c-4,0-7.2-1.2-9.6-3.6c-2.4-2.4-3.5-5.6-3.5-9.7c0-4.3,1.2-7.6,3.7-10.1c2.4-2.4,5.7-3.6,9.9-3.6
		c4,0,7.2,1.2,9.5,3.6c2.3,2.4,3.4,5.6,3.4,9.7c0,4.2-1.2,7.5-3.6,10C886,555.1,882.8,556.3,878.7,556.3z M878.9,551.7
		c2.3,0,4.1-0.8,5.3-2.3c1.2-1.5,1.8-3.7,1.8-6.6c0-2.9-0.6-5-1.8-6.5c-1.2-1.5-3-2.2-5.3-2.2c-2.3,0-4.1,0.8-5.4,2.4
		c-1.3,1.6-2,3.8-2,6.5c0,2.8,0.7,5,2,6.5C874.8,550.9,876.6,551.7,878.9,551.7z"/>
	<path class="st1" d="M918,567.9h-4.9v-51.6h4.9V567.9z"/>
	<path class="st1" d="M937.4,562.6v-11.3h2.5c1-1.9,1.7-4.1,2.3-6.7c0.5-2.6,0.8-5.4,0.8-8.5v-6.1h18.5v21.3h4v11.3h-5v-6.9h-18v6.9
		H937.4z M955.7,551.3v-16.9h-7.5v2.1c0,3-0.2,5.7-0.7,8.3c-0.4,2.6-1.1,4.7-2,6.6H955.7z"/>
	<path class="st1" d="M992.4,555.7h-5.9v-21.3h-8.4v7.1c0,3.6-0.2,6.5-0.6,8.4c-0.4,2-1.1,3.5-2.2,4.5c-0.7,0.7-1.4,1.2-2.3,1.5
		c-0.8,0.3-1.8,0.5-3.1,0.5c-0.5,0-0.9,0-1.3-0.1c-0.4-0.1-0.8-0.1-1.3-0.3l0.8-4.7c0.2,0.1,0.4,0.1,0.6,0.1c0.2,0,0.4,0,0.6,0
		c0.4,0,0.8-0.1,1.1-0.2c0.3-0.1,0.6-0.3,0.9-0.6c0.5-0.5,0.9-1.5,1.1-3c0.2-1.5,0.3-3.7,0.3-6.6v-11.2h19.7V555.7z"/>
	<path class="st1" d="M997.5,555.7l4.1-7.1c0.5-1,1.2-1.8,1.9-2.5c0.7-0.7,1.5-1.1,2.3-1.4c-2.1-0.3-3.7-1.1-4.9-2.3
		c-1.1-1.2-1.7-2.8-1.7-4.7c0-2.5,0.9-4.4,2.6-5.7c1.8-1.3,4.3-2,7.5-2h10.6v25.8h-5.8V546h-2.4c-0.8,0-1.6,0.3-2.4,0.9
		c-0.7,0.6-1.4,1.6-2.1,2.9l-3.1,5.9H997.5z M1014.1,534.2h-4.3c-1.5,0-2.7,0.3-3.5,1c-0.8,0.7-1.2,1.6-1.2,2.8c0,1.3,0.4,2.3,1.2,3
		c0.8,0.7,2,1,3.4,1h4.4V534.2z"/>
	<path class="st1" d="M1051.8,555.7h-5.9v-21.1h-7.5v-4.7h20.8v4.7h-7.5V555.7z"/>
	<path class="st1" d="M1084.8,544.4h-17.6c0.1,2.4,0.8,4.3,2.1,5.6c1.3,1.3,3.1,1.9,5.5,1.9c1,0,2-0.2,3.3-0.6
		c1.2-0.4,2.4-1,3.6-1.9l2.6,3.7c-1.6,1.2-3.2,2-4.9,2.5c-1.6,0.5-3.5,0.8-5.4,0.8c-4,0-7.1-1.2-9.4-3.5c-2.2-2.3-3.4-5.5-3.4-9.7
		c0-4.1,1.2-7.5,3.5-10c2.3-2.6,5.3-3.8,8.9-3.8c3.5,0,6.2,1.1,8.2,3.3c2,2.2,3,5.2,3,9.2V544.4z M1079.1,540.3c0-2.2-0.5-3.9-1.4-5
		c-1-1.1-2.3-1.7-4.1-1.7c-1.7,0-3.1,0.6-4.2,1.8c-1.2,1.2-1.9,2.8-2.2,4.9H1079.1z"/>
	<path class="st1" d="M1111.6,517.1l0.7,4.9c-0.5,0.4-1.3,0.7-2.4,1c-1.1,0.3-2.5,0.6-4.4,0.9c-2,0.3-3.6,0.7-4.8,1.1
		c-1.2,0.4-2.1,1-2.8,1.7c-0.8,0.8-1.4,1.9-1.9,3.3c-0.5,1.4-0.8,2.9-0.8,4.4h0.1c1-1.3,2.2-2.3,3.6-2.9c1.4-0.7,3.1-1,4.9-1
		c3.5,0,6.3,1.1,8.3,3.4c2,2.3,3,5.3,3,9.1c0,4-1.2,7.2-3.5,9.6c-2.3,2.4-5.5,3.6-9.4,3.6c-4.2,0-7.4-1.4-9.6-4.2
		c-2.2-2.8-3.3-6.9-3.3-12.2c0-3.8,0.4-7.2,1.1-10c0.8-2.8,1.9-5,3.5-6.5c1.3-1.3,2.9-2.3,4.7-2.8s3.9-1.1,6.2-1.5
		c2-0.4,3.6-0.7,4.7-1C1110.4,517.7,1111.2,517.4,1111.6,517.1z M1095.1,539.2c-0.1,0.5-0.1,1-0.1,1.4c0,0.4,0,0.9,0,1.4
		c0,3,0.7,5.4,2,7.1c1.3,1.7,3.1,2.6,5.3,2.6c2,0,3.6-0.8,4.9-2.3c1.2-1.5,1.9-3.5,1.9-5.9c0-2.6-0.6-4.6-1.7-6.1
		c-1.1-1.5-2.8-2.3-5.1-2.3c-1.6,0-3,0.4-4.2,1.1C1096.8,536.9,1095.8,537.9,1095.1,539.2z"/>
	<path class="st1" d="M1118.4,555.7l4.1-7.1c0.5-1,1.2-1.8,1.9-2.5c0.7-0.7,1.5-1.1,2.3-1.4c-2.1-0.3-3.7-1.1-4.9-2.3
		c-1.1-1.2-1.7-2.8-1.7-4.7c0-2.5,0.9-4.4,2.6-5.7c1.8-1.3,4.3-2,7.5-2h10.6v25.8h-5.8V546h-2.4c-0.8,0-1.6,0.3-2.4,0.9
		c-0.7,0.6-1.4,1.6-2.1,2.9l-3.1,5.9H1118.4z M1135,534.2h-4.3c-1.5,0-2.7,0.3-3.5,1c-0.8,0.7-1.2,1.6-1.2,2.8c0,1.3,0.4,2.3,1.2,3
		c0.8,0.7,2,1,3.4,1h4.4V534.2z"/>
</g>
</svg>
