<?xml version="1.0" encoding="utf-8"?>
<!-- Generator: Adobe Illustrator 26.0.3, SVG Export Plug-In . SVG Version: 6.00 Build 0)  -->
<svg version="1.1" id="Слой_1" xmlns="http://www.w3.org/2000/svg" xmlns:xlink="http://www.w3.org/1999/xlink" x="0px" y="0px"
	 viewBox="0 0 2000 2000" style="enable-background:new 0 0 2000 2000;" xml:space="preserve">
<style type="text/css">
	.st0{fill:#FF3939;}
</style>
<path class="st0" d="M493.2,1141.2L43.3,994.6c0,0-53.8-21.8-36.5-71.3c3.6-10.2,10.8-18.9,32.3-33.8
	c99.7-69.5,1845.2-696.9,1845.2-696.9s49.3-16.6,78.4-5.6c14.6,4.5,25.7,16.6,29,31.6c3.1,13,4.5,26.4,3.9,39.7
	c-0.1,11.6-1.5,22.3-2.6,39.1c-10.6,171.5-328.8,1451.7-328.8,1451.7s-19,74.9-87.2,77.5c-33.9,1.1-66.7-11.6-91-35.2
	c-133.8-115.1-596.4-426-698.6-494.3c-4.7-3.2-7.7-8.2-8.4-13.8c-1.4-7.2,6.4-16.1,6.4-16.1s805.4-715.9,826.9-791.1
	c1.7-5.8-4.6-8.7-13-6.1c-53.5,19.7-980.9,605.3-1083.2,669.9C508.6,1142.1,500.8,1142.5,493.2,1141.2z"/>
</svg>
